<?xml version="1.0" encoding="UTF-8"?>
<svg version="1.1" xmlns="http://www.w3.org/2000/svg" width="512" height="512">
<path d="M0 0 C1.39894938 -0.00374268 2.79789668 -0.00834665 4.1968407 -0.01373065 C8.01798616 -0.02590007 11.83904367 -0.02570737 15.66020405 -0.02334189 C19.79060328 -0.02293218 23.92097488 -0.0339877 28.05136108 -0.04345703 C36.13567742 -0.06003552 44.21996458 -0.06556518 52.3042965 -0.06668179 C58.88048021 -0.06763391 65.45665433 -0.07175239 72.03283501 -0.07808304 C90.70240177 -0.09568808 109.37194559 -0.10492325 128.04152072 -0.10342209 C129.54970797 -0.10330222 129.54970797 -0.10330222 131.08836365 -0.10317993 C132.09505838 -0.10309817 133.10175311 -0.10301641 134.13895374 -0.10293217 C150.44191938 -0.10211983 166.74479251 -0.12124627 183.04773141 -0.14945666 C199.81187062 -0.17823473 216.57596479 -0.1919942 233.34012932 -0.19026911 C242.74204698 -0.18960683 252.14386769 -0.1950276 261.54576302 -0.21662521 C269.55304257 -0.23490207 277.56018124 -0.23913135 285.5674727 -0.22560637 C289.64660863 -0.21910892 293.7254748 -0.21884152 297.8045845 -0.23631287 C329.30103399 -0.36268229 329.30103399 -0.36268229 343.00413513 4.26742554 C343.6555152 4.48652627 344.30689526 4.70562701 344.97801411 4.93136716 C370.76804537 13.71491898 390.82462238 31.97954936 403.08860779 56.27816772 C409.60463627 70.4361944 412.30901619 84.757241 412.27156067 100.26329041 C412.27530335 101.66223979 412.27990732 103.06118708 412.28529131 104.46013111 C412.29746074 108.28127657 412.29726804 112.10233407 412.29490256 115.92349446 C412.29449285 120.05389368 412.30554837 124.18426528 412.3150177 128.31465149 C412.33159619 136.39896783 412.33712585 144.48325499 412.33824246 152.56758691 C412.33919458 159.14377061 412.34331306 165.71994474 412.34964371 172.29612541 C412.36724875 190.96569218 412.37648392 209.635236 412.37498276 228.30481113 C412.37486289 229.81299838 412.37486289 229.81299838 412.3747406 231.35165405 C412.37465884 232.35834878 412.37457708 233.36504351 412.37449284 234.40224414 C412.3736805 250.70520979 412.39280694 267.00808291 412.42101733 283.31102181 C412.4497954 300.07516103 412.46355487 316.8392552 412.46182978 333.60341972 C412.4611675 343.00533738 412.46658827 352.4071581 412.48818588 361.80905342 C412.50646274 369.81633297 412.51069202 377.82347165 412.49716704 385.83076311 C412.49066959 389.90989904 412.49040219 393.98876521 412.50787354 398.06787491 C412.63424295 429.5643244 412.63424295 429.5643244 408.00413513 443.26742554 C407.7850344 443.9188056 407.56593366 444.57018566 407.34019351 445.24130452 C398.55664169 471.03133578 380.29201131 491.08791278 355.99339294 503.35189819 C341.83536627 509.86792667 327.51431967 512.5723066 312.00827026 512.53485107 C310.60932088 512.53859376 309.21037359 512.54319773 307.81142956 512.54858172 C303.9902841 512.56075114 300.1692266 512.56055844 296.34806621 512.55819297 C292.21766699 512.55778325 288.08729538 512.56883878 283.95690918 512.57830811 C275.87259284 512.59488659 267.78830568 512.60041625 259.70397376 512.60153286 C253.12779006 512.60248498 246.55161593 512.60660346 239.97543526 512.61293411 C221.30586849 512.63053915 202.63632467 512.63977432 183.96674954 512.63827316 C182.45856229 512.6381533 182.45856229 512.6381533 180.91990662 512.63803101 C179.91321189 512.63794924 178.90651716 512.63786748 177.86931653 512.63778324 C161.56635088 512.63697091 145.26347775 512.65609734 128.96053886 512.68430774 C112.19639964 512.71308581 95.43230547 512.72684528 78.66814095 512.72512019 C69.26622329 512.72445791 59.86440257 512.72987868 50.46250725 512.75147629 C42.45522769 512.76975315 34.44808902 512.77398242 26.44079756 512.76045744 C22.36166163 512.75395999 18.28279546 512.7536926 14.20368576 512.77116394 C-17.29276373 512.89753336 -17.29276373 512.89753336 -30.99586487 508.26742554 C-31.64724493 508.0483248 -32.29862499 507.82922407 -32.96974385 507.60348392 C-58.75977511 498.81993209 -78.81635211 480.55530172 -91.08033752 456.25668335 C-97.596366 442.09865667 -100.30074593 427.77761008 -100.26329041 412.27156067 C-100.26703309 410.87261129 -100.27163706 409.47366399 -100.27702105 408.07471997 C-100.28919047 404.25357451 -100.28899777 400.432517 -100.2866323 396.61135662 C-100.28622258 392.48095739 -100.29727811 388.35058579 -100.30674744 384.22019958 C-100.32332592 376.13588325 -100.32885559 368.05159609 -100.32997219 359.96726417 C-100.33092431 353.39108046 -100.3350428 346.81490634 -100.34137344 340.23872566 C-100.35897848 321.56915889 -100.36821365 302.89961507 -100.3667125 284.23003995 C-100.36663258 283.22458178 -100.36655267 282.21912362 -100.36647034 281.18319702 C-100.36638858 280.17650229 -100.36630681 279.16980756 -100.36622258 278.13260693 C-100.36541024 261.82964129 -100.38453667 245.52676816 -100.41274707 229.22382926 C-100.44152514 212.45969005 -100.45528461 195.69559588 -100.45355952 178.93143135 C-100.45289724 169.52951369 -100.45831801 160.12769298 -100.47991562 150.72579765 C-100.49819248 142.7185181 -100.50242175 134.71137943 -100.48889677 126.70408797 C-100.48239932 122.62495204 -100.48213193 118.54608586 -100.49960327 114.46697617 C-100.62597269 82.97052668 -100.62597269 82.97052668 -95.99586487 69.26742554 C-95.66721377 68.29035544 -95.66721377 68.29035544 -95.33192325 67.29354656 C-86.54837142 41.5035153 -68.28374105 21.44693829 -43.98512268 9.18295288 C-29.827096 2.6669244 -15.50604941 -0.03745552 0 0 Z " fill="#DBCDFC" transform="translate(99.99586486816406,-0.267425537109375)"/>
<path d="M0 0 C6.92641368 3.52855036 9.17972192 9.14281388 12.25 15.953125 C12.69907715 16.94261139 12.69907715 16.94261139 13.15722656 17.9520874 C13.78736632 19.34316691 14.41591942 20.73496612 15.04296875 22.12744141 C15.99189845 24.23203192 16.94874448 26.33289363 17.90625 28.43359375 C20.66455921 34.52190684 23.28855952 40.54767316 25.27026367 46.94116211 C26.41849863 50.18072899 28.03429958 53.15924282 29.60791016 56.20947266 C32.37582336 61.7579202 34.74505864 67.49030743 37.1875 73.1875 C37.7580854 74.51282312 38.32897159 75.83801677 38.90014648 77.16308594 C39.76588671 79.17166183 40.63140784 81.18032884 41.49580383 83.18948364 C43.29567707 87.3722382 45.10745356 91.5495775 46.9296875 95.72265625 C47.37675049 96.74657471 47.82381348 97.77049316 48.28442383 98.82543945 C49.10621543 100.70590586 49.92889601 102.58598416 50.75268555 104.46557617 C52.96812511 109.54336557 55.07265644 114.6529142 57.11352539 119.80322266 C58.14018706 122.34739828 59.26453428 124.83263129 60.4375 127.3125 C62.28031707 131.30152476 63.90438585 135.31971264 65.4375 139.4375 C67.42593736 144.71091068 69.73940544 149.68097903 72.375 154.66015625 C74.30188367 158.62045803 75.96185072 162.66262665 77.63964844 166.73364258 C79.88667253 172.12900069 82.25983255 177.46813124 84.625 182.8125 C88.22008813 190.95003056 91.80986783 199.0818079 95.1875 207.3125 C97.73798091 213.45225951 100.43040329 219.52469721 103.14526367 225.59301758 C105.13704173 230.04583562 107.08377506 234.51416684 109 239 C109.31324219 239.69609375 109.62648438 240.3921875 109.94921875 241.109375 C111.21813505 243.929189 112 245.87404987 112 249 C75.34510774 249.09169406 38.6902357 249.16210891 2.03525222 249.20426132 C-2.29900847 249.20926373 -6.63326894 249.21444106 -10.9675293 249.21972656 C-11.8303483 249.2207758 -12.69316731 249.22182505 -13.58213235 249.22290608 C-27.52544708 249.24027848 -41.46869537 249.27179859 -55.41197079 249.30861118 C-69.73495591 249.34610894 -84.0579064 249.36825447 -98.38093859 249.37635398 C-107.20840693 249.3818235 -116.03568744 249.39905467 -124.86309791 249.43166587 C-130.92865783 249.45292303 -136.99412164 249.45917491 -143.05971604 249.45400551 C-146.55148508 249.451461 -150.04292753 249.45516804 -153.53463745 249.4768219 C-185.162577 249.64399015 -213.02842206 242.87818437 -236.1015625 220.0625 C-254.24283287 201.31453796 -264.44250561 176.65049993 -264.1953125 150.6484375 C-264.1924826 149.50839264 -264.18965271 148.36834778 -264.18673706 147.1937561 C-264.17562932 143.58739286 -264.15054232 139.98128695 -264.125 136.375 C-264.11495804 133.91536819 -264.10583433 131.45573246 -264.09765625 128.99609375 C-264.07572087 122.99730948 -264.04233815 116.99867314 -264 111 C-244.95071905 102.3617063 -225.79306579 94.00881773 -206.5539093 85.80331421 C-197.46041174 81.92144429 -188.39308742 77.97918274 -179.32641602 74.03515625 C-178.16940186 73.53242188 -177.0123877 73.0296875 -175.8203125 72.51171875 C-174.81242676 72.07303467 -173.80454102 71.63435059 -172.76611328 71.18237305 C-161.98372218 66.57344806 -161.98372218 66.57344806 -155.94921875 68.734375 C-149.37829982 72.14976789 -147.56905751 77.36399381 -145 84 C-144.13688244 85.92204687 -143.26210556 87.83890612 -142.375 89.75 C-141.06967243 92.61044005 -139.81159783 95.46244168 -138.625 98.375 C-133.69967101 109.36227237 -129.22235788 117.52213811 -118.875 123.9375 C-111.61623754 126.59517047 -102.63761862 125.96886034 -95.5 123.3125 C-87.73826764 119.65394203 -83.47068865 114.72954166 -80 107 C-76.67605247 97.36690365 -78.3373967 85.47602402 -82.63671875 76.5625 C-83.31154297 75.2940625 -83.31154297 75.2940625 -84 74 C-84.6891123 72.64665309 -85.3767717 71.29256469 -86.0625 69.9375 C-86.38089844 69.32390625 -86.69929687 68.7103125 -87.02734375 68.078125 C-88.64367127 64.62476661 -89.83967406 61.02343428 -91.0703125 57.41796875 C-91.97616345 54.79834885 -91.97616345 54.79834885 -94 52 C-94.6772783 46.91253742 -94.82467221 42.44317636 -92.25 37.9375 C-88.87883787 35.03455484 -87.10045747 34.12227305 -82.625 33.625 C-77.69164636 34.13534693 -74.67720727 36.02262982 -71.47485352 39.7980957 C-69.81419897 42.27739439 -68.75472706 44.70780769 -67.65234375 47.48046875 C-65.08073866 53.81760408 -62.36907714 60.07610299 -59.5625 66.3125 C-59.11068359 67.34439453 -58.65886719 68.37628906 -58.19335938 69.43945312 C-54.74066648 77.08435185 -51.09336898 83.92035865 -43.375 87.875 C-42.27285156 88.45894531 -42.27285156 88.45894531 -41.1484375 89.0546875 C-33.70658236 92.32910376 -23.69183364 92.46774154 -16.125 89.5625 C-7.35645259 84.94919707 -3.00537333 77.01611998 0 68 C1.67083501 54.59534641 -3.20332404 44.50140282 -9.09765625 32.828125 C-10.61890869 29.8114792 -11.96872252 26.77889764 -13.1875 23.625 C-14.4907534 20.26669756 -14.4907534 20.26669756 -16 17 C-16.3501723 11.65987245 -16.48069602 8.32086403 -13 4 C-9.13832757 -0.08233943 -5.47147826 -1.06211049 0 0 Z " fill="#FDFDFD" transform="translate(264,263)"/>
<path d="M0 0 C7.27074533 5.2421967 11.65910459 10.73059359 15 19 C15.515625 20.175625 16.03125 21.35125 16.5625 22.5625 C17.036875 23.696875 17.51125 24.83125 18 26 C18.64225389 27.45991326 19.28833266 28.91814772 19.9375 30.375 C20.2778125 31.14070313 20.618125 31.90640625 20.96875 32.6953125 C21.62947913 34.17194198 22.29565665 35.64615284 22.96875 37.1171875 C24.94224404 41.46205744 26.70673102 45.84068634 28.375 50.3125 C30.44520055 55.7841993 32.91862266 60.90710042 35.59765625 66.1015625 C36.93531386 68.8663033 37.99839087 71.59907396 39 74.5 C40.75272191 79.56907541 43.05134103 84.20960106 45.49609375 88.9765625 C48.52688234 95.06962839 50.98482574 101.40718523 53.46875 107.73828125 C53.97857986 109.0340852 54.48900051 110.32965685 55 111.625 C55.37874268 112.58515015 55.37874268 112.58515015 55.76513672 113.56469727 C57.56048779 118.054231 59.62355756 122.32365849 61.8515625 126.609375 C63.51093145 130.06357158 64.70385878 133.65114177 65.96484375 137.265625 C67.34041872 140.89921927 69.07092689 144.2952425 70.84765625 147.74609375 C73.42169449 152.78073804 75.38706656 158.02780737 77.375 163.3125 C79.24662112 168.23042336 81.38227551 172.85704509 83.80859375 177.51953125 C85.51115474 181.06420741 86.76380478 184.73051256 88.0078125 188.45703125 C88.94255275 191.062564 88.94255275 191.062564 90.5 193.5 C92.01887322 196.03145536 92.94212364 198.39299869 93.875 201.1875 C95.53646987 205.9172782 97.5552927 210.29375238 99.84765625 214.74609375 C102.42169449 219.78073804 104.38706656 225.02780737 106.375 230.3125 C108.27824631 235.30565524 110.42267282 240.04924836 112.875 244.79296875 C114.41086039 247.80602819 115.70339124 250.87635162 117 254 C117.27972656 254.62003906 117.55945313 255.24007813 117.84765625 255.87890625 C119.1454432 258.77025485 120 260.79202735 120 264 C113.07 264 106.14 264 99 264 C98.278125 262.246875 97.55625 260.49375 96.8125 258.6875 C95.10788783 254.59162907 93.35348455 250.53059339 91.5 246.5 C88.84959758 240.72709222 86.41721617 234.8736094 84 229 C83.14728612 226.93689894 82.29313291 224.87439216 81.4375 222.8125 C81.06496094 221.91144531 80.69242187 221.01039063 80.30859375 220.08203125 C78.94600007 216.87281806 77.53334175 213.68909564 76.11303711 210.50512695 C74.07143858 205.91007485 72.06805519 201.29837051 70.0625 196.6875 C69.61938477 195.67002686 69.17626953 194.65255371 68.71972656 193.60424805 C66.5129658 188.52601504 64.33797758 183.44062735 62.25 178.3125 C60.66913477 174.4605326 58.90037715 170.76727566 57 167.0625 C54.35357573 161.87794504 52.24584363 156.60685671 50.21484375 151.15625 C48.73873243 147.32120838 47.0481439 143.61470589 45.31420898 139.89086914 C44.05622547 137.12367932 42.87564719 134.33810474 41.71875 131.52734375 C38.88505245 124.6947632 35.94890177 117.90845356 33 111.125 C32.43756966 109.82938611 31.87523443 108.53373094 31.31298828 107.23803711 C30.14164755 104.53890103 28.96989914 101.8399425 27.79785156 99.14111328 C25.10429791 92.93793887 22.41538639 86.73275253 19.7265625 80.52752686 C18.89342533 78.60501744 18.06002104 76.68262402 17.2265625 74.76025391 C13.28791815 65.67327425 13.28791815 65.67327425 11.46484375 61.41015625 C8.27001001 53.97258331 4.9962959 46.56938538 1.71875 39.16796875 C0.16641408 35.6619587 -1.3671512 32.15182038 -2.84375 28.61328125 C-5.41176104 22.24029148 -5.41176104 22.24029148 -9.875 17.1875 C-13.77378239 15.70596269 -16.89615653 15.03726933 -21 16 C-24.51765905 17.99055437 -26.69738144 20.09214433 -28 24 C-28.4802639 29.66711405 -27.88455179 32.88177732 -25.13671875 37.80859375 C-23.85801886 40.27371621 -22.9669789 42.75016533 -22.0625 45.375 C-20.74322922 49.13024715 -19.25443403 52.64611062 -17.4375 56.1875 C-16.62429967 57.79131176 -15.81174482 59.39545106 -15 61 C-14.67515625 61.63035156 -14.3503125 62.26070313 -14.015625 62.91015625 C-10.7175948 70.23738373 -10.60282174 79.77843929 -13.125 87.375 C-16.65195823 95.088161 -22.81638 102.88600972 -30.796875 106.140625 C-40.10024042 108.63664987 -49.61504619 107.72041844 -58 103 C-67.25192337 96.77274389 -71.37039907 86.50752689 -75.5625 76.5625 C-80.92727525 60.90465847 -80.92727525 60.90465847 -92 50 C-96.4515022 49.36407111 -98.42538359 49.68076866 -102.375 51.875 C-105.14375383 54.11637215 -105.85441669 54.80205731 -106.2734375 58.25 C-106.51221962 64.715485 -105.52768036 68.8452433 -102.36328125 74.4609375 C-100.93064762 77.12916633 -99.9263803 79.76473267 -98.9375 82.625 C-97.53466981 86.64606792 -95.93212382 90.39180076 -93.9296875 94.1484375 C-91.35393912 99.27828932 -90.64363819 103.57850841 -90.6875 109.3125 C-90.69313965 110.07361084 -90.6987793 110.83472168 -90.70458984 111.61889648 C-90.90072536 120.65375296 -93.69154551 127.37966686 -100 134 C-108.46779431 140.6762051 -117.39364043 142.12261358 -128 141 C-138.2639845 137.88885991 -144.17445106 131.04148539 -149.125 121.875 C-152.15966158 116.05676154 -154.65745758 110.11569694 -156.91015625 103.94921875 C-158.414903 99.87723381 -160.15328869 95.92728562 -162 92 C-162.30164063 91.30519531 -162.60328125 90.61039062 -162.9140625 89.89453125 C-164.73608275 86.71582685 -167.71405279 85.32649918 -171 84 C-175.86206797 83.14198801 -179.15541868 84.35766159 -183.57421875 86.2421875 C-185.17728882 86.92414185 -185.17728882 86.92414185 -186.81274414 87.61987305 C-191.42778895 89.61825285 -196.02948875 91.64465195 -200.625 93.6875 C-214.28162457 99.73051075 -228.0141276 105.5948466 -241.75048828 111.45385742 C-243.47827705 112.19169096 -245.20597998 112.92972555 -246.93359375 113.66796875 C-248.18979523 114.20432198 -248.18979523 114.20432198 -249.47137451 114.75151062 C-256.17363519 117.62288043 -262.83612216 120.57975087 -269.47080994 123.60404968 C-274.78350281 126 -274.78350281 126 -277 126 C-277 119.07 -277 112.14 -277 105 C-274.33287643 103.78460192 -271.66542181 102.56992378 -268.99609375 101.359375 C-267.23657049 100.56105154 -265.47821094 99.76013813 -263.72265625 98.953125 C-259.39149393 96.98514808 -255.01687154 95.234843 -250.5625 93.5625 C-245.67433237 91.71169553 -241.08630511 89.58595201 -236.453125 87.1796875 C-233.8863754 85.94535887 -231.31597565 84.99280872 -228.625 84.0625 C-224.56681635 82.65070935 -220.81928588 80.96885667 -217 79 C-212.31066865 76.58263151 -207.63702958 74.7175102 -202.65625 73 C-199.94653359 71.97987147 -197.44424024 70.76969864 -194.875 69.4375 C-185.25336562 64.54360748 -176.06618257 61.98913477 -165.2265625 64.69140625 C-154.55638247 68.61474937 -147.88077529 75.14346541 -142.8828125 85.26171875 C-141.87866607 87.49185792 -140.93395374 89.73967498 -140 92 C-139.33769096 93.50192915 -138.67100748 95.00193678 -138 96.5 C-136.99414522 98.75924414 -135.99144594 101.01954736 -135 103.28515625 C-134.0142107 105.53013736 -133.01191098 107.76668085 -132 110 C-131.67 110.73863281 -131.34 111.47726562 -131 112.23828125 C-128.59326086 117.61363844 -128.59326086 117.61363844 -124 121 C-119.19917285 121.60962884 -117.14460267 121.69153078 -113 119.1875 C-110.08611443 114.54349488 -110.02735848 110.33946653 -111 105 C-112.16447083 101.91973644 -113.58105228 98.97003442 -115 96 C-128.710283 66.90967078 -128.710283 66.90967078 -126 53 C-122.41930949 43.46490279 -117.19727483 36.62909197 -108 32 C-99.09191387 28.84884028 -90.84070714 29.3972096 -82.0390625 32.5390625 C-71.25089063 37.72515026 -66.3825389 46.40886432 -62 57 C-61.35846536 58.46022947 -60.71237781 59.91846451 -60.0625 61.375 C-59.55589844 62.51195312 -59.55589844 62.51195312 -59.0390625 63.671875 C-58.52472656 64.82429688 -58.52472656 64.82429688 -58 66 C-57.31203358 67.54145859 -56.62452705 69.08312251 -55.9375 70.625 C-55.60492188 71.36492187 -55.27234375 72.10484375 -54.9296875 72.8671875 C-54.3426267 74.21397405 -53.7815195 75.57264889 -53.2578125 76.9453125 C-51.57515912 81.31264881 -49.829018 84.25309578 -46 87 C-42.85424613 87.6921784 -40.1379285 87.75075672 -37 87 C-33.7808352 83.94179344 -32.13074484 81.36148961 -31.70703125 76.94921875 C-32.07470844 71.99293028 -33.65809697 68.30104605 -35.6875 63.8125 C-36.4245907 62.12504871 -37.16156998 60.43754875 -37.8984375 58.75 C-38.25905273 57.93660156 -38.61966797 57.12320313 -38.99121094 56.28515625 C-40.71677225 52.37633392 -42.35569273 48.43291244 -43.96875 44.4765625 C-44.59426365 42.974382 -45.25261292 41.48458816 -45.96875 40.0234375 C-49.31467634 32.74294963 -49.36363526 23.70327901 -47.15625 16.08984375 C-43.21151881 7.46740766 -36.47818104 1.07604858 -28 -3 C-18.95067661 -5.92423551 -8.08864789 -4.92756711 0 0 Z " fill="#040405" transform="translate(277,248)"/>
<path d="M0 0 C0.66 0.33 1.32 0.66 2 1 C-1.3 4.3 -4.6 7.6 -8 11 C-8.66 10.67 -9.32 10.34 -10 10 C-8.90033225 8.70450101 -7.79508199 7.41373929 -6.6875 6.125 C-6.07261719 5.40570313 -5.45773438 4.68640625 -4.82421875 3.9453125 C-3 2 -3 2 0 0 Z " fill="#292730" transform="translate(165,282)"/>
</svg>
